<svg width="348" height="92" viewBox="0 0 348 92" fill="none" xmlns="http://www.w3.org/2000/svg">
<mask id="path-1-inside-1" fill="white">
<path fill-rule="evenodd" clip-rule="evenodd" d="M0.171509 42C2.08497 19.7861 19.7861 2.08497 42 0.171501V6.1975C23.1023 8.07378 8.07378 23.1023 6.19751 42H0.171509ZM0.17151 50C2.08497 72.2139 19.7861 89.915 42 91.8285V85.8025C23.1023 83.9262 8.07378 68.8977 6.19751 50H0.17151ZM85.8025 50C83.9262 68.8977 68.8977 83.9262 50 85.8025V91.8285C72.2139 89.915 89.915 72.2139 91.8285 50H85.8025ZM91.8285 42C89.915 19.7861 72.2139 2.08497 50 0.171501V6.1975C68.8977 8.07378 83.9262 23.1023 85.8025 42H91.8285Z"/>
</mask>
<path fill-rule="evenodd" clip-rule="evenodd" d="M0.171509 42C2.08497 19.7861 19.7861 2.08497 42 0.171501V6.1975C23.1023 8.07378 8.07378 23.1023 6.19751 42H0.171509ZM0.17151 50C2.08497 72.2139 19.7861 89.915 42 91.8285V85.8025C23.1023 83.9262 8.07378 68.8977 6.19751 50H0.17151ZM85.8025 50C83.9262 68.8977 68.8977 83.9262 50 85.8025V91.8285C72.2139 89.915 89.915 72.2139 91.8285 50H85.8025ZM91.8285 42C89.915 19.7861 72.2139 2.08497 50 0.171501V6.1975C68.8977 8.07378 83.9262 23.1023 85.8025 42H91.8285Z" fill="black"/>
<path d="M42 0.171501H66V-25.9847L39.9403 -23.74L42 0.171501ZM0.171509 42L-23.7399 39.9403L-25.9847 66H0.171509V42ZM42 6.1975L44.3712 30.0801L66 27.9326V6.1975H42ZM6.19751 42V66H27.9326L30.0801 44.3712L6.19751 42ZM0.17151 50V26H-25.9847L-23.7399 52.0597L0.17151 50ZM42 91.8285L39.9403 115.74L66 117.985V91.8285H42ZM42 85.8025H66V64.0674L44.3712 61.9199L42 85.8025ZM6.19751 50L30.0801 47.6288L27.9326 26H6.19751V50ZM50 85.8025L47.6288 61.9199L26 64.0674L26 85.8025H50ZM85.8025 50V26H64.0674L61.9199 47.6288L85.8025 50ZM50 91.8285H26V117.985L52.0597 115.74L50 91.8285ZM91.8285 50L115.74 52.0597L117.985 26H91.8285V50ZM50 0.171501L52.0597 -23.74L26 -25.9847L26 0.171501H50ZM91.8285 42V66H117.985L115.74 39.9403L91.8285 42ZM50 6.1975H26V27.9326L47.6288 30.0801L50 6.1975ZM85.8025 42L61.9199 44.3712L64.0674 66H85.8025V42ZM39.9403 -23.74C6.09814 -20.8249 -20.8248 6.09814 -23.7399 39.9403L24.083 44.0597C24.9948 33.4741 33.4741 24.9948 44.0597 24.083L39.9403 -23.74ZM66 6.1975V0.171501H18V6.1975H66ZM30.0801 44.3712C30.8265 36.8532 36.8532 30.8265 44.3712 30.0801L39.6288 -17.6851C9.3515 -14.679 -14.679 9.3515 -17.6851 39.6288L30.0801 44.3712ZM0.171509 66H6.19751V18H0.171509V66ZM-23.7399 52.0597C-20.8248 85.9019 6.09814 112.825 39.9403 115.74L44.0597 67.917C33.4741 67.0052 24.9948 58.5259 24.083 47.9403L-23.7399 52.0597ZM66 91.8285V85.8025H18V91.8285H66ZM44.3712 61.9199C36.8532 61.1735 30.8265 55.1468 30.0801 47.6288L-17.6851 52.3712C-14.679 82.6485 9.35151 106.679 39.6288 109.685L44.3712 61.9199ZM6.19751 26H0.17151V74H6.19751V26ZM52.3712 109.685C82.6485 106.679 106.679 82.6485 109.685 52.3712L61.9199 47.6288C61.1735 55.1468 55.1468 61.1735 47.6288 61.9199L52.3712 109.685ZM74 91.8285V85.8025H26V91.8285H74ZM67.9171 47.9403C67.0052 58.5259 58.5259 67.0052 47.9403 67.917L52.0597 115.74C85.9019 112.825 112.825 85.9019 115.74 52.0597L67.9171 47.9403ZM91.8285 26H85.8025V74H91.8285V26ZM47.9403 24.083C58.5259 24.9948 67.0052 33.4741 67.9171 44.0597L115.74 39.9403C112.825 6.09814 85.9019 -20.8249 52.0597 -23.74L47.9403 24.083ZM74 6.1975V0.171501H26V6.1975H74ZM109.685 39.6288C106.679 9.35151 82.6485 -14.679 52.3712 -17.6851L47.6288 30.0801C55.1468 30.8265 61.1735 36.8532 61.9199 44.3712L109.685 39.6288ZM85.8025 66H91.8285V18H85.8025V66Z" fill="#4A90B8" mask="url(#path-1-inside-1)"/>
<path d="M49.82 21.6C54.2067 21.6 57.45 22.5567 59.55 24.47C61.6967 26.3833 62.77 28.88 62.77 31.96C62.77 34.5733 62.0467 36.58 60.6 37.98C59.1533 39.3333 57.0767 40.01 54.37 40.01C53.53 40.01 52.9933 39.94 52.76 39.8C52.5267 39.6133 52.41 39.2633 52.41 38.75C52.41 38.2833 52.3633 37.6767 52.27 36.93C52.2233 36.1833 52.06 35.46 51.78 34.76C51.5 34.06 51.0567 33.4767 50.45 33.01C49.8433 32.4967 49.0033 32.24 47.93 32.24C46.4367 32.24 45.1067 32.7067 43.94 33.64C42.7733 34.5267 42.19 35.6933 42.19 37.14C42.19 38.4 42.6567 39.4267 43.59 40.22C44.57 41.0133 45.7833 41.76 47.23 42.46C48.6767 43.1133 50.24 43.79 51.92 44.49C53.6467 45.19 55.2333 46.1233 56.68 47.29C58.1267 48.41 59.3167 49.8333 60.25 51.56C61.23 53.24 61.72 55.3867 61.72 58C61.72 60.0533 61.37 61.99 60.67 63.81C60.0167 65.5833 59.0133 67.1467 57.66 68.5C56.3533 69.8067 54.6733 70.8333 52.62 71.58C50.6133 72.3267 48.2567 72.7 45.55 72.7C43.2167 72.7 41.0467 72.4433 39.04 71.93C37.08 71.4167 35.3533 70.7867 33.86 70.04C32.4133 69.2467 31.27 68.4067 30.43 67.52C29.59 66.5867 29.17 65.7467 29.17 65C29.17 61.92 29.3333 59.7033 29.66 58.35C30.0333 56.9967 30.6867 56.32 31.62 56.32C32.2733 56.32 32.95 56.6 33.65 57.16C34.3967 57.72 35.2367 58.35 36.17 59.05C37.1033 59.75 38.1767 60.38 39.39 60.94C40.65 61.5 42.0967 61.78 43.73 61.78C44.3833 61.78 45.0133 61.7333 45.62 61.64C46.2733 61.5 46.8333 61.29 47.3 61.01C47.8133 60.73 48.21 60.3567 48.49 59.89C48.8167 59.4233 48.98 58.8633 48.98 58.21C48.98 57.0433 48.5367 56.11 47.65 55.41C46.7633 54.71 45.6433 54.08 44.29 53.52C42.9367 52.9133 41.4667 52.3067 39.88 51.7C38.34 51.0467 36.8933 50.1833 35.54 49.11C34.1867 47.99 33.0667 46.5667 32.18 44.84C31.2933 43.1133 30.85 40.8967 30.85 38.19C30.85 35.1567 31.41 32.59 32.53 30.49C33.6967 28.39 35.1667 26.6867 36.94 25.38C38.76 24.0267 40.79 23.07 43.03 22.51C45.3167 21.9033 47.58 21.6 49.82 21.6Z" fill="#E5E5E5"/>
<path d="M133.35 36.65C133.183 36.1167 132.533 35.65 131.4 35.25C130.3 34.8167 128.85 34.6 127.05 34.6C125.083 34.6 123.55 35.15 122.45 36.25C121.35 37.35 120.8 38.7333 120.8 40.4C120.8 41.4333 121.167 42.2333 121.9 42.8C122.667 43.3333 123.833 43.9333 125.4 44.6L127.2 45.35L128.7 46.05C130.5 46.85 131.917 47.5833 132.95 48.25C134.017 48.8833 134.917 49.7667 135.65 50.9C136.383 52.0333 136.75 53.4833 136.75 55.25C136.75 57.15 136.117 58.8 134.85 60.2C133.617 61.5667 131.883 62.6 129.65 63.3C127.417 64.0333 124.817 64.4 121.85 64.4C119.65 64.4 117.583 64.05 115.65 63.35C113.75 62.6833 112.233 61.8333 111.1 60.8C110 59.7667 109.45 58.75 109.45 57.75C109.45 56.7833 109.867 56 110.7 55.4C111.533 54.7667 112.717 54.3333 114.25 54.1C114.417 55.0667 114.983 55.9333 115.95 56.7C116.917 57.4667 118.033 58.0833 119.3 58.55C120.6 58.9833 121.733 59.2 122.7 59.2C124.467 59.2 126.033 58.85 127.4 58.15C128.8 57.45 129.5 56.4833 129.5 55.25C129.5 54.2167 129 53.3667 128 52.7C127.033 52 125.567 51.25 123.6 50.45L120.95 49.25C118.783 48.1833 117.067 46.9833 115.8 45.65C114.533 44.3167 113.9 42.55 113.9 40.35C113.9 37.9167 114.583 35.95 115.95 34.45C117.317 32.9167 118.967 31.8167 120.9 31.15C122.867 30.4833 124.783 30.15 126.65 30.15C129.617 30.15 132.05 30.5333 133.95 31.3C135.883 32.0667 137.283 33.0333 138.15 34.2C139.017 35.3667 139.45 36.5667 139.45 37.8C139.45 38.5 139.267 39.35 138.9 40.35C138.567 41.35 138.05 42.2167 137.35 42.95C136.683 43.6833 135.867 44.05 134.9 44.05C133.233 44.05 132.4 43.1833 132.4 41.45C132.467 40.9167 132.617 40.05 132.85 38.85C133.083 37.6167 133.25 36.8833 133.35 36.65ZM166.296 40.6C166.43 40.8 166.596 41.1833 166.796 41.75C167.03 42.2833 167.146 42.7 167.146 43C167.146 43.1667 167.13 43.2667 167.096 43.3C166.93 43.5 166.546 43.6667 165.946 43.8C165.346 43.9333 164.946 44.0167 164.746 44.05C163.713 44.7167 162.063 45.7833 159.796 47.25C157.563 48.6833 155.93 49.7333 154.896 50.4C154.963 51.2 155.563 52.4333 156.696 54.1C157.83 55.7333 159.046 57.2833 160.346 58.75C161.646 60.2167 162.43 60.95 162.696 60.95C162.996 60.95 163.363 61.2 163.796 61.7C164.263 62.2 164.496 62.65 164.496 63.05C164.496 63.4167 164.263 63.65 163.796 63.75C163.496 63.8167 162.93 63.9333 162.096 64.1C161.296 64.2667 160.596 64.35 159.996 64.35C159.463 64.35 159.046 64.2833 158.746 64.15C157.98 63.8833 156.93 63 155.596 61.5C154.296 59.9667 153.046 58.2667 151.846 56.4C150.646 54.5 149.863 52.8667 149.496 51.5C148.43 55.8 147.68 58.75 147.246 60.35C146.813 61.9167 146.463 62.9333 146.196 63.4C145.93 63.9 145.613 64.15 145.246 64.15L143.846 64.2C141.646 64.2 140.496 63.3167 140.396 61.55C141.063 59.9167 141.53 58.5667 141.796 57.5C145.096 45.2667 147.446 36.05 148.846 29.85C148.813 29.35 148.78 28.6667 148.746 27.8C148.713 26.9 148.696 26.2 148.696 25.7C148.796 25.2667 149.163 24.9167 149.796 24.65C150.463 24.3833 151.063 24.25 151.596 24.25C152.43 24.25 153.313 24.5333 154.246 25.1C155.18 25.6667 155.663 26.35 155.696 27.15L151.246 44.6L150.396 48.05C151.096 47.1833 152.28 46.1167 153.946 44.85C155.646 43.5833 157.38 42.45 159.146 41.45C160.946 40.45 162.38 39.85 163.446 39.65C163.713 39.65 164.196 39.7333 164.896 39.9C165.63 40.0667 166.096 40.3 166.296 40.6ZM173.709 33.3C173.709 32.2667 174.026 31.35 174.659 30.55C175.326 29.75 176.242 29.35 177.409 29.35C178.642 29.35 179.709 29.7333 180.609 30.5C181.542 31.2667 182.009 32.1333 182.009 33.1C182.009 34.0667 181.542 34.9 180.609 35.6C179.676 36.3 178.592 36.65 177.359 36.65C176.159 36.65 175.242 36.35 174.609 35.75C174.009 35.1167 173.709 34.3 173.709 33.3ZM178.959 42.15C177.192 49.35 175.842 54.7667 174.909 58.4C174.776 58.9333 174.709 59.5167 174.709 60.15L174.759 61.55C174.759 62.1167 174.576 62.5167 174.209 62.75C173.876 62.9833 173.142 63.1167 172.009 63.15C170.909 63.15 170.076 63.0333 169.509 62.8C168.942 62.5667 168.659 62.0667 168.659 61.3C168.659 60.9333 169.076 58.9833 169.909 55.45C170.776 51.9167 171.942 47.3167 173.409 41.65L172.259 40.15C172.159 40.05 172.109 39.9333 172.109 39.8C172.109 39.4667 172.476 39.2 173.209 39C173.942 38.7667 174.959 38.65 176.259 38.65C177.392 38.65 178.109 38.9833 178.409 39.65C178.742 40.2833 178.926 41.1167 178.959 42.15ZM187.327 60.8C187.294 61 186.844 62.8167 185.977 66.25C185.144 69.7167 184.561 71.9 184.227 72.8C184.094 73.1667 183.694 73.4333 183.027 73.6C182.361 73.8 181.877 73.9 181.577 73.9C180.077 73.9 179.277 72.9833 179.177 71.15C179.811 67.35 180.877 62.2333 182.377 55.8C183.877 49.3333 185.177 44.05 186.277 39.95C186.344 39.45 186.644 38.9667 187.177 38.5C187.744 38 188.244 37.75 188.677 37.75C189.444 37.75 190.077 37.9833 190.577 38.45C191.111 38.8833 191.427 39.5167 191.527 40.35C192.861 39.45 194.394 39 196.127 39C197.994 39 199.694 39.4167 201.227 40.25C202.761 41.05 203.961 42.2167 204.827 43.75C205.727 45.2833 206.177 47.0667 206.177 49.1C206.177 51.6 205.694 53.9667 204.727 56.2C203.761 58.4333 202.311 60.25 200.377 61.65C198.444 63.05 196.111 63.75 193.377 63.75C192.511 63.75 191.394 63.4667 190.027 62.9C188.661 62.3 187.761 61.6 187.327 60.8ZM188.877 54.45C188.811 54.85 188.777 55.1333 188.777 55.3C188.811 56.1333 189.077 56.8667 189.577 57.5C190.111 58.1333 190.727 58.6333 191.427 59C192.127 59.3333 192.711 59.5 193.177 59.5C194.644 59.5 195.927 58.9833 197.027 57.95C198.161 56.9167 199.027 55.6167 199.627 54.05C200.227 52.4833 200.527 50.95 200.527 49.45C200.527 47.4833 200.027 46 199.027 45C198.027 43.9667 196.794 43.45 195.327 43.45C194.561 43.45 193.794 43.6 193.027 43.9C192.294 44.2 191.644 44.65 191.077 45.25L188.877 54.45ZM210.893 45.6C210.493 45.6 210.193 45.45 209.993 45.15C209.793 44.8167 209.693 44.4 209.693 43.9C209.693 43.2 209.96 42.4167 210.493 41.55C210.793 41.25 212.41 40.9333 215.343 40.6L217.493 30.9C217.727 29.8333 218.11 29.05 218.643 28.55C219.21 28.0167 219.827 27.75 220.493 27.75C221.293 27.75 222.01 28.0333 222.643 28.6C223.31 29.1667 223.66 29.8333 223.693 30.6C223.693 30.8 223.66 31.0667 223.593 31.4L221.443 40C223.643 39.8333 225.06 39.75 225.693 39.75C226.26 39.75 226.793 39.8833 227.293 40.15C227.827 40.3833 228.243 40.6667 228.543 41C228.843 41.3333 228.993 41.6167 228.993 41.85C228.993 42.4167 228.76 42.9333 228.293 43.4C227.86 43.8333 227.36 44.1 226.793 44.2L220.243 44.8L215.943 62C215.443 63.4 214.76 64.1 213.893 64.1C213.193 64.1 212.56 63.6667 211.993 62.8C211.46 61.9333 211.193 60.95 211.193 59.85C211.193 59.4167 211.243 58.9833 211.343 58.55L214.293 45.3L210.893 45.6ZM237.959 63.5C235.026 63.5 232.743 62.5 231.109 60.5C229.476 58.5 228.659 55.95 228.659 52.85C228.659 50.25 229.209 47.8667 230.309 45.7C231.443 43.5333 233.009 41.8333 235.009 40.6C237.043 39.3333 239.359 38.7 241.959 38.7C244.859 38.7 246.809 38.95 247.809 39.45C248.109 39.5833 248.376 39.8 248.609 40.1C248.843 40.3667 248.959 40.6333 248.959 40.9C248.959 41.2333 248.876 41.5833 248.709 41.95C248.576 42.3167 248.359 42.6 248.059 42.8C248.826 42.8667 249.476 43.25 250.009 43.95C250.543 44.6167 250.943 45.4 251.209 46.3C251.476 47.2 251.609 47.9833 251.609 48.65C251.609 51.0167 251.026 53.35 249.859 55.65C248.726 57.95 247.126 59.8333 245.059 61.3C242.993 62.7667 240.626 63.5 237.959 63.5ZM238.709 59.35C239.776 59.35 240.859 58.8333 241.959 57.8C243.093 56.7333 244.026 55.3333 244.759 53.6C245.493 51.8667 245.859 50.05 245.859 48.15C245.859 47.7833 245.726 47.45 245.459 47.15C245.226 46.85 244.893 46.5333 244.459 46.2C244.226 46.0333 244.009 45.8667 243.809 45.7C243.643 45.5 243.559 45.3167 243.559 45.15C243.559 45.0167 243.593 44.8333 243.659 44.6C243.759 44.3667 243.809 44.2 243.809 44.1C243.809 43.6 243.193 43.35 241.959 43.35C240.593 43.35 239.326 43.9 238.159 45C237.026 46.1 236.126 47.5 235.459 49.2C234.826 50.9 234.509 52.5667 234.509 54.2C234.509 55.1667 234.726 56.05 235.159 56.85C235.593 57.6167 236.126 58.2333 236.759 58.7C237.426 59.1333 238.076 59.35 238.709 59.35ZM275.55 57.1C275.15 58.1667 274.367 59.25 273.2 60.35C272.033 61.4167 270.55 62.3 268.75 63C266.95 63.7 264.983 64.05 262.85 64.05C259.583 64.05 257.167 63.3833 255.6 62.05C254.033 60.6833 253.25 58.9167 253.25 56.75C253.25 53.6167 254.05 50.7167 255.65 48.05C257.25 45.35 259.4 43.2167 262.1 41.65C264.8 40.0833 267.683 39.3 270.75 39.3C272.65 39.3 274.217 39.8667 275.45 41C276.717 42.1 277.35 43.6 277.35 45.5C277.35 46.2333 277.05 46.85 276.45 47.35C275.85 47.8167 275.05 48.05 274.05 48.05C273.25 48.05 272.7 47.8667 272.4 47.5C272.133 47.1333 272 46.65 272 46.05L272.05 44.9C272.05 44.5 271.833 44.1833 271.4 43.95C270.967 43.6833 270.5 43.55 270 43.55C268.967 43.55 267.567 44.1667 265.8 45.4C264.067 46.6333 262.533 48.2667 261.2 50.3C259.9 52.3 259.25 54.45 259.25 56.75C259.25 57.6833 259.617 58.4 260.35 58.9C261.083 59.4 262.167 59.65 263.6 59.65C264.5 59.65 265.533 59.4667 266.7 59.1C267.867 58.7333 268.6 58.2667 268.9 57.7C270.033 55.6333 271.067 54.6 272 54.6C273.367 54.6 274.283 54.8667 274.75 55.4C275.25 55.9 275.517 56.4667 275.55 57.1ZM285.101 55.9C285.001 56.3 284.951 56.7 284.951 57.1C284.951 57.8 285.135 58.3667 285.501 58.8C285.868 59.2333 286.451 59.45 287.251 59.45C288.285 59.45 289.401 59.15 290.601 58.55C291.801 57.95 292.818 57.2167 293.651 56.35L294.601 52.4C295.235 49.7333 295.968 46.85 296.801 43.75C297.168 42.4167 297.635 41.3333 298.201 40.5C298.801 39.6333 299.735 39.2 301.001 39.2C302.768 39.2 303.651 39.7333 303.651 40.8C303.651 40.9667 303.601 41.1833 303.501 41.45C303.435 41.6833 303.385 41.8833 303.351 42.05C302.185 46.9833 301.535 49.7333 301.401 50.3C299.835 57.3 298.651 62.1667 297.851 64.9C296.685 68.9333 295.018 71.8 292.851 73.5C290.685 75.2 287.668 76.05 283.801 76.05C281.468 76.05 279.901 75.7 279.101 75C278.301 74.3333 277.901 73.5 277.901 72.5C277.901 71.9 278.135 71.3833 278.601 70.95C279.101 70.5167 279.651 70.3 280.251 70.3C280.751 70.3 281.135 70.35 281.401 70.45C281.701 70.5833 282.018 70.7667 282.351 71C282.751 71.3 283.151 71.5167 283.551 71.65C283.951 71.8167 284.535 71.9 285.301 71.9C285.868 71.9 286.551 71.6667 287.351 71.2C288.151 70.7333 288.918 69.9833 289.651 68.95C290.418 67.95 291.018 66.7167 291.451 65.25L292.701 60.9C291.568 61.9667 290.468 62.75 289.401 63.25C288.335 63.7833 287.135 64.05 285.801 64.05C283.601 64.05 281.901 63.3667 280.701 62C279.535 60.6333 278.951 58.8167 278.951 56.55C278.951 55.8833 279.051 55.15 279.251 54.35L282.451 41.65L281.151 40.15C281.051 40.05 281.001 39.9333 281.001 39.8C281.001 39.4667 281.368 39.2 282.101 39C282.835 38.7667 283.851 38.65 285.151 38.65C287.285 38.65 288.451 39.6667 288.651 41.7L285.101 55.9ZM307.329 45.6C306.929 45.6 306.629 45.45 306.429 45.15C306.229 44.8167 306.129 44.4 306.129 43.9C306.129 43.2 306.396 42.4167 306.929 41.55C307.229 41.25 308.846 40.9333 311.779 40.6L313.929 30.9C314.162 29.8333 314.546 29.05 315.079 28.55C315.646 28.0167 316.262 27.75 316.929 27.75C317.729 27.75 318.446 28.0333 319.079 28.6C319.746 29.1667 320.096 29.8333 320.129 30.6C320.129 30.8 320.096 31.0667 320.029 31.4L317.879 40C320.079 39.8333 321.496 39.75 322.129 39.75C322.696 39.75 323.229 39.8833 323.729 40.15C324.262 40.3833 324.679 40.6667 324.979 41C325.279 41.3333 325.429 41.6167 325.429 41.85C325.429 42.4167 325.196 42.9333 324.729 43.4C324.296 43.8333 323.796 44.1 323.229 44.2L316.679 44.8L312.379 62C311.879 63.4 311.196 64.1 310.329 64.1C309.629 64.1 308.996 63.6667 308.429 62.8C307.896 61.9333 307.629 60.95 307.629 59.85C307.629 59.4167 307.679 58.9833 307.779 58.55L310.729 45.3L307.329 45.6ZM334.045 64.05C330.745 64.05 328.328 63.4 326.795 62.1C325.295 60.8 324.545 59.0667 324.545 56.9C324.545 53.6667 325.212 50.7333 326.545 48.1C327.878 45.4333 329.728 43.35 332.095 41.85C334.462 40.3167 337.162 39.55 340.195 39.55C342.095 39.55 343.678 40.0833 344.945 41.15C346.245 42.2167 346.895 43.8 346.895 45.9C346.895 48.1333 346.162 49.8833 344.695 51.15C343.262 52.4167 341.378 53.3333 339.045 53.9C336.745 54.4333 333.845 54.8667 330.345 55.2C330.245 55.6333 330.195 56.15 330.195 56.75C330.195 57.6833 330.595 58.4 331.395 58.9C332.195 59.4 333.312 59.65 334.745 59.65C335.778 59.65 336.978 59.4333 338.345 59C339.745 58.5667 340.812 57.85 341.545 56.85C341.978 56.2833 342.478 55.8333 343.045 55.5C343.645 55.1667 344.228 55 344.795 55C345.328 55 345.762 55.1833 346.095 55.55C346.462 55.8833 346.645 56.4 346.645 57.1C346.278 58.1667 345.512 59.25 344.345 60.35C343.178 61.4167 341.695 62.3 339.895 63C338.128 63.7 336.178 64.05 334.045 64.05ZM331.645 50.6C333.778 50.5667 335.962 50.1667 338.195 49.4C340.428 48.6 341.545 47.2167 341.545 45.25C341.545 44.7833 341.328 44.4333 340.895 44.2C340.462 43.9333 339.995 43.8 339.495 43.8C338.528 43.8 337.512 44.1667 336.445 44.9C335.412 45.6 334.462 46.4833 333.595 47.55C332.728 48.5833 332.078 49.6 331.645 50.6Z" fill="#E5E5E5"/>
</svg>
